# xmcd
#
# Track frame offsets:
#	150
#	22138
#	35178
#	57685
#	71715
#	91363
#	102009
#	116227
#	129992
#	152172
#	163580
#	180267
#	212987
#	231169
#	253417
#	287553
#	313774
#
# Disc length: 4757 seconds
#
# Revision: 1
# Processed by: cddbd v1.5.2PL0 Copyright (c) Steve Scherf et al.
# Submitted via: audiograbber 1.83.01
#
DISCID=02129311
DTITLE=Gary Moore - Greatest Hits
DYEAR=2010
DGENRE=Blues
TTITLE0=Texas Strut
TTITLE1=Since I Met You Baby (with B.B. King)
TTITLE2=Midnight Blues
TTITLE3=Left Me With The Blues
TTITLE4=Jumpin' At Shadows
TTITLE5=Looking Back
TTITLE6=I Loved Another Woman
TTITLE7=Supernatural
TTITLE8=The Sky Is Crying
TTITLE9=Power Of The Blues
TTITLE10=All Your Love
TTITLE11=Picture Of The Monn
TTITLE12=One Day
TTITLE13=Separate Ways
TTITLE14=Like Angels
TTITLE15=Evenin'
TTITLE16=Trouble Ain't Far Behind
EXTD=
EXTT0=
EXTT1=
EXTT2=
EXTT3=
EXTT4=
EXTT5=
EXTT6=
EXTT7=
EXTT8=
EXTT9=
EXTT10=
EXTT11=
EXTT12=
EXTT13=
EXTT14=
EXTT15=
EXTT16=
PLAYORDER=
